HIERARCHY
ROOT Hips
{
	OFFSET -0.179506 -22.333345 2.821913
	CHANNELS 6 Xposition Yposition Zposition Zrotation Yrotation Xrotation 
	JOINT LeftUpLeg
	{
		OFFSET 6.951974 -9.140623 -0.681533
		CHANNELS 3 Zrotation Yrotation Xrotation
		JOINT LeftLeg
		{
			OFFSET 3.427654 -37.519855 -0.449580
			CHANNELS 3 Zrotation Yrotation Xrotation
			JOINT LeftFoot
			{
				OFFSET -1.359570 -39.796059 -4.369333
				CHANNELS 3 Zrotation Yrotation Xrotation
				JOINT LeftToe
				{
					OFFSET 2.635814 -5.579078 11.928840
					CHANNELS 3 Zrotation Yrotation Xrotation
					End Site
					{
						OFFSET 0.000000 0.000000 0.000000
					}
				}
			}
		}
	}
	JOINT RightUpLeg
	{
		OFFSET -6.767048 -9.052170 -0.431982
		CHANNELS 3 Zrotation Yrotation Xrotation
		JOINT RightLeg
		{
			OFFSET -3.829005 -38.256897 -0.885003
			CHANNELS 3 Zrotation Yrotation Xrotation
			JOINT RightFoot
			{
				OFFSET 1.577377 -39.841461 -4.231180
				CHANNELS 3 Zrotation Yrotation Xrotation
				JOINT RightToe
				{
					OFFSET -2.537174 -4.814398 12.334795
					CHANNELS 3 Zrotation Yrotation Xrotation
					End Site
					{
						OFFSET 0.000000 0.000000 0.000000
					}
				}
			}
		}
	}
	JOINT Spine
	{
		OFFSET -0.253288 10.896323 -2.669631
		CHANNELS 3 Zrotation Yrotation Xrotation
		JOINT Spine1
		{
			OFFSET 0.548704 13.518043 0.109247
			CHANNELS 3 Zrotation Yrotation Xrotation
			JOINT Spine2
			{
				OFFSET 0.145701 5.292222 2.542457
				CHANNELS 3 Zrotation Yrotation Xrotation
				JOINT Neck
				{
					OFFSET -0.277840 21.387037 -4.285703
					CHANNELS 3 Zrotation Yrotation Xrotation
					JOINT Head
					{
						OFFSET 0.515184 6.496960 5.134897
						CHANNELS 3 Zrotation Yrotation Xrotation
						End Site
						{
							OFFSET 0.000000 0.000000 0.000000
						}
					}
				}
				JOINT LeftShoulder
				{
					OFFSET 7.884473 12.174932 -3.408961
					CHANNELS 3 Zrotation Yrotation Xrotation
					JOINT LeftArm
					{
						OFFSET 9.097692 3.046888 -0.886815
						CHANNELS 3 Zrotation Yrotation Xrotation
						JOINT LeftForeArm
						{
							OFFSET 25.961220 -1.277207 -2.745643
							CHANNELS 3 Zrotation Yrotation Xrotation
							JOINT LeftHand
							{
								OFFSET 24.923361 0.898606 -0.117091
								CHANNELS 3 Zrotation Yrotation Xrotation
								End Site
								{
									OFFSET 0.000000 0.000000 0.000000
								}
							}
						}
					}
				}
				JOINT RightShoulder
				{
					OFFSET -8.175920 11.883285 -3.861528
					CHANNELS 3 Zrotation Yrotation Xrotation
					JOINT RightArm
					{
						OFFSET -9.601238 3.255117 -0.914307
						CHANNELS 3 Zrotation Yrotation Xrotation
						JOINT RightForeArm
						{
							OFFSET -25.374195 -1.332924 -2.140099
							CHANNELS 3 Zrotation Yrotation Xrotation
							JOINT RightHand
							{
								OFFSET -25.529810 0.777228 -0.555919
								CHANNELS 3 Zrotation Yrotation Xrotation
								End Site
								{
									OFFSET 0.000000 0.000000 0.000000
								}
							}
						}
					}
				}
			}
		}
	}
}
MOTION
Frames: 6
Frame Time: 0.033333
-41.296570 14.693944 93.807869 174.473878 1.082478 91.455599 -5.964005 -1.012072 4.994929 3.551947 1.198314 -8.772603 7.748501 13.892015 -7.025945 nan nan nan -5.353052 -0.305647 -9.838981 4.405035 -3.356613 17.950526 11.328707 1.442935 -10.394466 nan nan nan 0.341056 0.565209 12.451825 3.444028 -3.656285 4.168241 -0.109138 0.379794 2.669802 -9.560307 -14.618733 12.832003 7.317561 -5.884220 -14.987147 -18.108125 -6.119372 -1.527081 -64.408859 -4.422661 21.105425 6.829198 -24.786691 4.591680 -4.928261 -22.445122 -24.178197 20.182683 19.107361 -8.417908 60.872849 33.204765 19.491714 -143.978281 64.950698 -130.106119 -9.872212 24.580541 0.172574 
-41.407578 14.518556 93.790474 174.855009 1.217727 91.719091 -5.878960 -1.207405 4.451465 3.625064 1.044544 -8.595671 7.921185 13.790112 -6.953048 nan nan nan -5.324409 -0.483533 -10.275924 4.505526 -3.496319 18.085003 11.312981 1.236775 -10.272413 nan nan nan 0.421459 0.523528 13.114128 3.648964 -3.774349 3.349619 -0.095710 0.328495 3.034350 -9.600581 -14.912790 12.362423 7.415739 -5.718640 -14.765986 -18.053489 -6.332536 -1.033855 -64.471732 -4.663683 20.948704 7.182190 -25.048052 5.012086 -5.496342 -22.405540 -24.406739 19.835082 19.120538 -8.544681 61.243809 33.661645 19.662961 -142.898775 65.060775 -128.447586 -9.457451 23.743550 0.266680 
-41.480865 14.494479 93.816238 174.867439 1.206469 91.931109 -5.973981 -1.062243 4.264001 3.694638 1.065825 -8.802245 7.983508 13.650780 -6.719333 nan nan nan -5.411538 -0.522468 -10.554091 4.501906 -3.580718 18.100301 11.269211 1.284979 -10.185262 nan nan nan 0.356470 0.528751 13.053588 3.580099 -3.600931 3.697356 0.007377 0.304510 2.928900 -9.450660 -14.852117 12.388401 7.489823 -5.821521 -15.074970 -18.085863 -6.332989 -1.299122 -64.484483 -4.611950 21.033426 7.223027 -24.833784 5.227588 -6.392305 -22.200327 -23.445458 19.799108 19.231967 -8.507122 61.211920 34.010105 19.630808 -141.826551 65.122442 -127.360671 -8.502587 23.219075 0.843413 
-41.562004 14.425742 93.846756 174.965214 1.203521 92.134919 -6.028867 -1.006742 4.011668 3.690898 1.140365 -8.908059 7.965794 13.471969 -6.597648 nan nan nan -5.489621 -0.573590 -10.791475 4.453277 -3.748588 18.032029 11.303085 1.343486 -10.030370 nan nan nan 0.286174 0.478967 13.166207 3.514132 -3.518908 3.766797 0.094180 0.434037 2.978675 -9.283678 -14.832909 12.454638 7.667914 -5.972837 -15.473155 -17.990985 -6.259104 -1.776288 -64.641255 -4.669579 21.372646 7.016283 -24.421125 5.378066 -6.285431 -22.175276 -23.171678 19.818495 19.238670 -8.602902 61.240677 34.233055 19.592992 -140.989471 65.183170 -126.743272 -8.411219 23.072154 0.878385 
-41.662178 14.309828 93.869293 175.091584 1.244136 92.432400 -6.078317 -1.133240 3.606914 3.741198 1.189717 -8.946885 8.014413 13.408494 -6.463252 nan nan nan -5.509660 -0.580974 -11.146407 4.407682 -3.884936 17.956519 11.383151 1.277182 -9.912878 nan nan nan 0.292711 0.441812 13.319590 3.525008 -3.556518 3.621704 0.107551 0.516175 3.111933 -9.295339 -14.932245 12.436894 7.889359 -5.818802 -15.695045 -17.942653 -6.377285 -1.892906 -64.765785 -4.753395 21.567375 6.908668 -24.283421 5.321100 -5.016464 -22.165570 -24.100535 19.818874 19.309352 -8.758643 61.403534 34.383862 19.672559 -140.195903 65.230741 -126.360573 -9.438153 23.346574 -0.116552 
-41.768806 14.193975 93.877357 175.267289 1.291742 92.648618 -6.152062 -1.341409 3.289869 3.868091 1.173352 -8.948609 8.059826 13.387885 -6.322001 nan nan nan -5.556668 -0.650698 -11.381337 4.482493 -3.964870 17.849337 11.407642 1.192962 -9.760770 nan nan nan 0.406974 0.487002 13.607650 3.543238 -3.660875 3.463469 0.103616 0.406421 3.197300 -9.326934 -15.026297 12.152585 7.971129 -5.595664 -15.596450 -17.884327 -6.773115 -1.531989 -64.870195 -4.872886 21.361062 7.052225 -24.386725 4.974747 -4.389667 -22.074720 -24.629790 19.717892 19.548475 -8.827422 61.657954 34.545428 19.708777 -139.352108 65.133230 -125.931320 -9.697104 23.504530 -1.175654 
